<?xml version="1.0" encoding="utf-8"?>
<!-- Generator: Adobe Illustrator 26.5.2, SVG Export Plug-In . SVG Version: 6.00 Build 0)  -->
<svg version="1.1" id="Capa_1" xmlns="http://www.w3.org/2000/svg" xmlns:xlink="http://www.w3.org/1999/xlink" x="0px" y="0px"
	 viewBox="0 0 64 64" style="enable-background:new 0 0 64 64;" xml:space="preserve">
<style type="text/css">
	.st0{fill:#D22AFF;stroke:#C02AFF;stroke-width:2.4276;stroke-linecap:round;stroke-linejoin:round;stroke-miterlimit:10;}
	.st1{fill:#BBC2C3;stroke:#BBC2C3;stroke-width:5.517290e-04;stroke-miterlimit:10;}
	.st2{fill:#F8F9FA;stroke:#BBC2C3;stroke-width:5.517290e-04;stroke-miterlimit:10;}
	.st3{fill:#3FFF4A;stroke:#BBC2C3;stroke-width:5.517290e-04;stroke-miterlimit:10;}
	.st4{fill:#FFF515;stroke:#BBC2C3;stroke-width:5.517290e-04;stroke-miterlimit:10;}
	.st5{fill:#E92700;stroke:#BBC2C3;stroke-width:5.517290e-04;stroke-miterlimit:10;}
	.st6{fill:#BBC2C3;stroke:#F8F9FA;stroke-width:5.517290e-04;stroke-miterlimit:10;}
</style>
<g id="SVGRepo_bgCarrier">
</g>
<g id="SVGRepo_tracerCarrier">
	<g>
		<g>
			<path class="st0" d="M14.3,23.8c-3.6,0-6.5,2.9-6.5,6.5s2.9,6.5,6.5,6.5c3.6,0,6.5-2.9,6.5-6.5S17.9,23.8,14.3,23.8z M14.3,34.1
				c-2.1,0-3.9-1.7-3.9-3.9s1.7-3.9,3.9-3.9s3.9,1.7,3.9,3.9C18.1,32.4,16.4,34.1,14.3,34.1z"/>
			<path class="st0" d="M14.3,27c-1.8,0-3.3,1.5-3.3,3.3c0,1.8,1.5,3.3,3.3,3.3c1.8,0,3.3-1.5,3.3-3.3C17.6,28.4,16.1,27,14.3,27z"
				/>
			<path class="st0" d="M23.4,39.3c0-0.1-0.1-0.3-0.3-0.3h-2c-0.1,0-0.3,0.1-0.3,0.3v2.6h-2.6c-0.1,0-0.3,0.1-0.3,0.3v2
				c0,0.1,0.1,0.3,0.3,0.3H21V47c0,0.1,0.1,0.3,0.3,0.3h2c0.1,0,0.3-0.1,0.3-0.3v-2.6h2.6c0.1,0,0.3-0.1,0.3-0.3v-2
				c0-0.1-0.1-0.3-0.3-0.3h-2.6V39.3z"/>
			<path class="st0" d="M54.7,21.8c0,0-0.9-4.5-7.3-3.2c0,0-3.7-2-13.5-2.3c0.5-2.4,3.5-1.9,5.2-3.1c1.4-1,2.1-2.8,2-4.5
				c-0.1-1.5-2.4-1.5-2.3,0c0.1,1.1-0.2,2.1-1.2,2.7c-0.9,0.7-2.3,0.4-3.3,1c-1.5,0.8-2.4,2.2-2.6,3.8c-11,0.2-15.1,2.4-15.1,2.4
				c-6.4-1.3-7.3,3.2-7.3,3.2C2.9,26,4.8,33.9,4.8,33.9c-0.7,7.9-0.9,22.6,4.4,22.6s5.3-13.7,5.3-13.7s0.9,1.5,1.6,3.5
				c0.7,2,6,7.5,11.7,1.5c5.7-6-2.2-12.1-2.2-12.1v-1c1.9-0.5,6.4-0.6,6.4-0.6s4.5,0.1,6.4,0.6v1c0,0-7.9,6-2.2,12.1
				s11,0.5,11.7-1.5c0.7-2,1.6-3.5,1.6-3.5s0,13.7,5.3,13.7c5.3,0,5.1-14.6,4.4-22.6C59.2,33.9,61.1,26,54.7,21.8z M38.6,19.4
				c0.2,0,0.3,0,0.5,0c0.1,0,0.2,0.1,0.2,0.2c0,0.2,0,0.5,0,0.7c0,0.2-0.1,0.3-0.3,0.3c-0.1,0-0.3,0-0.4,0c-0.2,0-0.3-0.1-0.3-0.3
				c0-0.1,0-0.2,0-0.3c0-0.1,0-0.2,0-0.3C38.3,19.6,38.5,19.4,38.6,19.4z M36.4,19.4c0.2,0,0.4,0,0.7,0c0.1,0,0.1,0,0.2,0.1
				c0,0,0.1,0.1,0.1,0.2c0,0.2,0,0.5,0,0.7c0,0,0,0.1,0,0.1c-0.1,0.1-0.2,0.2-0.3,0.2c-0.2,0-0.4,0-0.6,0
				C36.4,20.2,36.4,19.8,36.4,19.4z M34.4,19.4c0.1,0,0.2,0,0.3,0c0,0,0,0,0,0c0.1,0.2,0.2,0.4,0.3,0.6c0,0,0,0,0,0.1
				c0-0.2,0-0.5,0-0.7c0.1,0,0.1,0,0.2,0c0,0.4,0,0.8,0,1.2c-0.1,0-0.1,0-0.2,0c0,0,0,0,0,0c-0.1-0.3-0.3-0.5-0.4-0.8c0,0,0,0,0-0.1
				c0,0.3,0,0.6,0,0.8c-0.1,0-0.1,0-0.2,0C34.4,20.2,34.4,19.8,34.4,19.4z M32.3,19.7c0-0.2,0.1-0.2,0.2-0.2c0.2,0,0.4,0,0.6,0
				c0,0,0,0,0.1,0c0,0.1,0,0.1,0,0.2c0,0,0,0-0.1,0c-0.2,0-0.3,0-0.5,0c-0.1,0-0.2,0-0.2,0.2c0,0,0,0.1,0,0.1c0.2,0,0.5,0,0.7,0
				c0,0.1,0,0.1,0,0.2c-0.2,0-0.4,0-0.7,0c0,0.1,0,0.2,0,0.2c0,0,0.1,0.1,0.1,0.1c0.2,0,0.3,0,0.5,0c0,0,0,0,0.1,0
				c0,0.1,0,0.1,0,0.2c0,0,0,0,0,0c-0.2,0-0.4,0-0.6,0c-0.1,0-0.2-0.1-0.2-0.2C32.3,20.1,32.3,19.9,32.3,19.7z M30.4,19.4
				c0.3,0,0.7,0,1,0c0,0.1,0,0.1,0,0.2c-0.1,0-0.2,0-0.4,0c0,0.3,0,0.7,0,1c-0.1,0-0.2,0-0.2,0c0-0.3,0-0.7,0-1c-0.1,0-0.2,0-0.4,0
				C30.4,19.6,30.4,19.5,30.4,19.4z M30.4,21c0.5,0,1.1,0,1.6,0c0,0.1,0,0.2,0,0.3c-0.4,0-0.8,0-1.2,0c0,0.1,0,0.2,0,0.2
				c0.2,0,0.4,0,0.7,0c0,0.1,0,0.2,0,0.3c-0.2,0-0.4,0-0.7,0c0,0.1,0,0.2,0,0.3c0.4,0,0.8,0,1.2,0c0,0.1,0,0.2,0,0.4
				c-0.5,0-1.1,0-1.6,0C30.4,22.1,30.4,21.6,30.4,21z M28.5,19.4c0.1,0,0.2,0,0.3,0c0,0,0,0,0,0c0.1,0.2,0.2,0.4,0.3,0.6
				c0,0,0,0,0,0c0-0.2,0-0.5,0-0.7c0.1,0,0.2,0,0.2,0c0,0.4,0,0.8,0,1.2c-0.1,0-0.2,0-0.2,0c0,0,0,0,0,0c-0.1-0.2-0.3-0.5-0.4-0.7
				c0,0,0,0,0,0c0,0.3,0,0.6,0,0.8c-0.1,0-0.1,0-0.2,0C28.5,20.2,28.5,19.8,28.5,19.4z M27,19.4c0.1,0,0.2,0,0.2,0
				c0,0.4,0,0.8,0,1.2c-0.1,0-0.2,0-0.2,0C27,20.2,27,19.8,27,19.4z M24.8,19.4c0.1,0,0.2,0,0.3,0c0,0,0,0,0,0
				c0.1,0.2,0.2,0.4,0.3,0.6c0,0,0,0,0,0c0-0.2,0-0.5,0-0.7c0.1,0,0.2,0,0.2,0c0,0.4,0,0.8,0,1.2c-0.1,0-0.1,0-0.2,0c0,0,0,0,0,0
				c-0.1-0.3-0.3-0.5-0.4-0.8c0,0,0,0,0,0c0,0.1,0,0.3,0,0.4s0,0.3,0,0.4c-0.1,0-0.1,0-0.2,0C24.8,20.2,24.8,19.8,24.8,19.4z
				 M14.3,37.4c-3.9,0-7.1-3.2-7.1-7.1s3.2-7.1,7.1-7.1c3.9,0,7.1,3.2,7.1,7.1S18.2,37.4,14.3,37.4z M26.1,41.3
				c0.5,0,0.8,0.4,0.8,0.8v2c0,0.5-0.4,0.8-0.8,0.8H24V47c0,0.5-0.4,0.8-0.8,0.8h-2c-0.5,0-0.8-0.4-0.8-0.8v-2h-2.1
				c-0.5,0-0.8-0.4-0.8-0.8v-2c0-0.5,0.4-0.8,0.8-0.8h2.1v-2.1c0-0.5,0.4-0.8,0.8-0.8h2c0.5,0,0.8,0.4,0.8,0.8v2.1L26.1,41.3
				L26.1,41.3z M25.9,22.6c-0.3,0-0.7,0-1,0c-0.2,0-0.3-0.1-0.4-0.3c0,0,0-0.1,0-0.1c0-0.3,0-0.6,0-0.9c0,0,0-0.1,0-0.1
				c0-0.1,0.1-0.2,0.2-0.2c0.5,0,1,0,1.5,0c0,0,0,0,0,0c0,0.1,0,0.2,0,0.3c-0.5,0-0.9,0-1.4,0c0,0.3,0,0.6,0,0.9c0.3,0,0.7,0,1,0
				c0-0.1,0-0.2,0-0.2c-0.2,0-0.4,0-0.6,0c0-0.1,0-0.2,0-0.4c0.3,0,0.6,0,1,0c0,0,0,0,0,0.1c0,0.2,0,0.4,0,0.6c0,0.1,0,0.1,0,0.2
				c0,0-0.1,0.1-0.1,0.1C26,22.6,26,22.6,25.9,22.6z M29.9,21.8C29.8,21.8,29.8,21.9,29.9,21.8c-0.2,0.3-0.3,0.5-0.4,0.7
				c0,0,0,0-0.1,0c-0.1,0-0.2,0-0.2,0c0,0-0.1,0-0.1,0c-0.1-0.2-0.3-0.5-0.4-0.7c0,0,0,0,0-0.1c0,0.3,0,0.5,0,0.8c0,0,0,0-0.1,0
				c-0.2,0-0.4,0-0.6,0c0,0-0.1,0-0.1,0c-0.2-0.3-0.4-0.7-0.6-1c0,0,0,0,0-0.1c-0.1,0.2-0.3,0.5-0.4,0.7c0.2,0,0.3,0,0.5,0
				c0,0.1,0,0.2,0,0.4c-0.4,0-0.8,0-1.1,0c0,0,0,0,0,0c0.3-0.5,0.6-1,0.9-1.5c0,0,0-0.1,0.1,0c0.1,0,0.2,0,0.3,0c0,0,0.1,0,0.1,0
				c0.2,0.4,0.4,0.7,0.6,1.1c0,0,0,0,0,0.1c0-0.4,0-0.8,0-1.2c0.1,0,0.2,0,0.2,0c0.1,0,0.2,0,0.3,0.1c0.2,0.3,0.3,0.6,0.5,0.9
				c0,0,0,0,0,0.1c0.1-0.2,0.2-0.3,0.3-0.4c0.1-0.2,0.2-0.4,0.3-0.6c0,0,0,0,0.1,0c0.1,0,0.2,0,0.4,0c0,0.5,0,1,0,1.6
				c-0.1,0-0.3,0-0.4,0C29.9,22.4,29.9,22.1,29.9,21.8C29.9,21.8,29.9,21.8,29.9,21.8z M32,31.9c-1,0-1.9-0.8-1.9-1.9
				s0.8-1.9,1.9-1.9c1,0,1.9,0.8,1.9,1.9C33.9,31,33,31.9,32,31.9z M32.7,21.4c0,0.3,0,0.6,0,0.8c0.3,0,0.6,0,0.9,0
				c0-0.1,0-0.2,0-0.3c0.1,0,0.3,0,0.4,0c0,0,0,0,0,0c0,0.1,0,0.3,0,0.4c0,0.1-0.1,0.2-0.2,0.2c-0.4,0-0.8,0-1.2,0
				c-0.2,0-0.3-0.1-0.3-0.3c0,0,0,0,0-0.1c0-0.3,0-0.7,0-1c0-0.1,0-0.2,0.2-0.2c0.4,0,0.8,0,1.3,0c0.2,0,0.3,0.1,0.2,0.3
				c0,0.1,0,0.2,0,0.3c0,0,0,0,0,0.1c-0.1,0-0.3,0-0.4,0c0-0.1,0-0.2,0-0.2C33.3,21.4,33,21.4,32.7,21.4z M36,21.1
				c0,0.4,0,0.8,0,1.2c0,0.2-0.1,0.3-0.3,0.3c0,0-0.1,0-0.1,0c-0.4,0-0.7,0-1.1,0c-0.1,0-0.1,0-0.2,0c-0.1,0-0.2-0.1-0.2-0.2
				c0-0.4,0-0.9,0-1.3c0.1,0,0.3,0,0.4,0c0,0.4,0,0.8,0,1.2c0.3,0,0.6,0,0.9,0c0-0.4,0-0.8,0-1.2C35.7,21,35.8,21,36,21.1
				C36,21.1,36,21.1,36,21.1z M37.7,21.8c0.1,0,0.1,0.1,0.1,0.2c0,0.1,0,0.3,0,0.4c0,0.1,0,0.2-0.1,0.2c-0.1,0-0.2,0-0.3,0
				c-0.4,0-0.8,0-1.2,0c0,0,0,0,0,0c0-0.5,0-1,0-1.6c0,0,0,0,0.1,0c0.5,0,0.9,0,1.4,0c0.2,0,0.2,0.1,0.2,0.2c0,0.1,0,0.2,0,0.4
				C37.8,21.7,37.8,21.8,37.7,21.8C37.7,21.8,37.7,21.8,37.7,21.8C37.7,21.8,37.7,21.8,37.7,21.8C37.7,21.8,37.7,21.8,37.7,21.8z
				 M38,22.6c0-0.5,0-1,0-1.6c0.5,0,1,0,1.6,0c0,0.1,0,0.2,0,0.3c-0.4,0-0.8,0-1.2,0c0,0.1,0,0.2,0,0.2c0.2,0,0.4,0,0.7,0
				c0,0.1,0,0.2,0,0.3c-0.2,0-0.4,0-0.7,0c0,0.1,0,0.2,0,0.3c0.4,0,0.8,0,1.2,0c0,0.1,0,0.2,0,0.4C39,22.6,38.5,22.6,38,22.6z
				 M46.4,43.8l-1.8,3.1c0,0.1-0.1,0.1-0.2,0.1L41,47.9c0,0,0,0-0.1,0c-0.1,0-0.1,0-0.1,0l-3-1.8c-0.1,0-0.1-0.1-0.1-0.2l-0.8-3.5
				c0-0.1,0-0.2,0-0.2l1.8-2.8c0-0.1,0.1-0.1,0.2-0.1l3.3-0.8c0.1,0,0.1,0,0.2,0l2.9,1.7c0.1,0,0.1,0.1,0.1,0.2l1,3.2
				C46.4,43.6,46.4,43.7,46.4,43.8z M56.8,33c-0.2,0-0.4,0.1-0.5,0.1c-0.3,0-0.5-0.1-0.7-0.1c-0.9,2.4-3.3,4.1-6,4.1
				c-1.7,0-3.2-0.6-4.3-1.7c-0.5,0.7-1.3,1.2-2.2,1.2c-1.5,0-2.7-1.2-2.7-2.7c0-1.5,1.2-2.7,2.7-2.7c0,0,0.1,0,0.1,0
				c0-0.2,0-0.4,0-0.5c0-1.6,0.5-3,1.5-4.1C44.2,26.3,44,26,44,25.6c-0.3-1.1,0.4-2.2,1.4-2.5l0.1,0c1.8-0.5,1.8-0.5,3.4-0.9l0.1,0
				c0.2,0,0.3-0.1,0.5-0.1c0.9,0,1.8,0.6,2,1.5c0.1,0.3,0.1,0.6,0,0.8c0.9,0.3,1.8,0.8,2.5,1.5c0.2-0.2,0.5-0.3,0.8-0.4
				c0.2,0,0.4-0.1,0.5-0.1c0.9,0,1.7,0.6,2,1.5l0,0.1c0.5,1.8,0.5,1.8,0.9,3.4l0,0.1C58.5,31.7,57.9,32.7,56.8,33z"/>
			<circle class="st0" cx="32" cy="30" r="1.3"/>
			<path class="st0" d="M37.1,20.3c0-0.2,0-0.4,0-0.5c0-0.1-0.1-0.1-0.1-0.1c-0.1,0-0.2,0-0.4,0c0,0.3,0,0.6,0,0.8
				c0.1,0,0.2,0,0.3,0C37,20.5,37.1,20.4,37.1,20.3z"/>
			<path class="st0" d="M37.3,21.6C37.4,21.6,37.4,21.6,37.3,21.6c0.1-0.1,0.1-0.2,0.1-0.2c0,0,0-0.1-0.1-0.1c-0.2,0-0.5,0-0.7,0
				c0,0,0,0,0,0c0,0.1,0,0.2,0,0.3c0.1,0,0.2,0,0.2,0C37,21.6,37.2,21.6,37.3,21.6z"/>
			<path class="st0" d="M54.3,31.6C54.3,31.6,54.3,31.5,54.3,31.6c0-0.1,0-1.2-0.2-1.9c-0.1-0.4-0.4-0.9-0.6-1.2
				c-0.1-0.2-0.2-0.4-0.2-0.5c-0.2-0.6,0-1.2,0.3-1.7c-0.6-0.6-1.4-1.1-2.3-1.4c0,0.1,0,0.1-0.1,0.2c-0.3,0.5-0.7,0.8-1.2,1
				c0,0-0.1,0-0.1,0l-0.1,0c-0.2,0-1.1,0-1.7,0.2c-0.4,0.1-0.9,0.4-1.2,0.6c-0.2,0.1-0.4,0.2-0.5,0.2c-0.2,0-0.4,0.1-0.5,0.1
				c-0.4,0-0.7-0.1-1-0.3c-0.8,1-1.3,2.3-1.3,3.7c0,0.2,0,0.4,0,0.6c1.2,0.3,2.1,1.4,2.1,2.6c0,0.4-0.1,0.7-0.2,1.1
				c1.1,1,2.5,1.6,4,1.6c2.5,0,4.7-1.6,5.5-3.8C54.7,32.4,54.4,32,54.3,31.6z M49.6,34.5c-2.1,0-3.8-1.7-3.8-3.8
				c0-2.1,1.7-3.8,3.8-3.8c2.1,0,3.8,1.7,3.8,3.8C53.3,32.8,51.6,34.5,49.6,34.5z"/>
			<path class="st0" d="M38.6,20.3c0,0.1,0,0.1,0.1,0.1c0.1,0,0.2,0,0.3,0c0.1,0,0.1-0.1,0.1-0.1c0-0.2,0-0.3,0-0.5
				c0-0.1-0.1-0.1-0.1-0.1c-0.1,0-0.1,0-0.2,0c-0.1,0-0.1,0.1-0.1,0.1c0,0.1,0,0.2,0,0.3h0C38.6,20.1,38.6,20.2,38.6,20.3z"/>
			<path class="st0" d="M49.6,27.6c-1.8,0-3.2,1.4-3.2,3.2c0,1.8,1.4,3.2,3.2,3.2c1.8,0,3.2-1.4,3.2-3.2
				C52.8,29,51.3,27.6,49.6,27.6z"/>
			<path class="st0" d="M42.2,39l-3.1,0.8l-1.7,2.6l0.8,3.3l2.8,1.7l3.2-0.8l1.6-2.9l-0.9-3L42.2,39z M41.6,46.1
				c-1.6,0-2.9-1.3-2.9-2.9c0-1.6,1.3-2.9,2.9-2.9c1.6,0,2.9,1.3,2.9,2.9C44.5,44.8,43.2,46.1,41.6,46.1z"/>
			<path class="st0" d="M37.3,22c-0.2,0-0.5,0-0.7,0c0,0,0,0,0,0c0,0.1,0,0.2,0,0.3c0,0,0,0,0.1,0c0.2,0,0.4,0,0.6,0
				c0.1,0,0.1,0,0.2,0c0,0,0.1,0,0.1-0.1C37.4,22.1,37.4,22.1,37.3,22C37.4,22,37.4,22,37.3,22z"/>
			<path class="st0" d="M41.6,40.9c-1.3,0-2.3,1-2.3,2.3c0,1.3,1,2.3,2.3,2.3c1.3,0,2.3-1,2.3-2.3C43.9,41.9,42.9,40.9,41.6,40.9z"
				/>
			<path class="st0" d="M43.7,31.8c-0.2-0.1-0.4-0.1-0.6-0.1c-0.1,0-0.1,0-0.2,0c-1.2,0-2.2,1-2.2,2.2s1,2.2,2.2,2.2
				c0.8,0,1.4-0.4,1.8-1c0.1-0.2,0.2-0.4,0.3-0.6c0.1-0.2,0.1-0.4,0.1-0.6C45.1,32.9,44.5,32.2,43.7,31.8z"/>
			<path class="st0" d="M44.8,26.1c0.1,0.1,0.3,0.3,0.5,0.3c0.3,0.1,0.6,0.2,1,0.1c0,0,0.2-0.1,0.3-0.2c0.4-0.2,0.8-0.5,1.4-0.6
				c0.6-0.2,1.5-0.2,1.8-0.2l0.1,0c0.4-0.1,0.7-0.3,0.9-0.7c0,0,0,0,0,0c0.1-0.2,0.2-0.4,0.2-0.6c0-0.2,0-0.4,0-0.5
				c-0.2-0.6-0.7-1.1-1.4-1.1c-0.1,0-0.2,0-0.4,0l-0.1,0c-1.6,0.4-1.6,0.4-3.3,0.9l-0.1,0c-0.8,0.2-1.3,1-1,1.8
				C44.6,25.7,44.7,25.9,44.8,26.1z"/>
			<path class="st0" d="M57.6,30.6c-0.4-1.6-0.4-1.6-0.9-3.4l0-0.1c-0.2-0.8-1-1.2-1.8-1c-0.2,0.1-0.4,0.1-0.5,0.3
				c-0.2,0.1-0.3,0.3-0.4,0.4c-0.2,0.3-0.2,0.7-0.1,1.1c0,0,0.1,0.2,0.2,0.3c0.2,0.4,0.5,0.8,0.6,1.4c0.2,0.7,0.2,1.7,0.2,1.9
				c0.1,0.2,0.2,0.4,0.3,0.6c0.1,0.1,0.3,0.3,0.5,0.3c0.3,0.1,0.6,0.2,0.9,0.1C57.4,32.3,57.9,31.5,57.6,30.6L57.6,30.6z"/>
		</g>
	</g>
</g>
<g id="SVGRepo_iconCarrier">
	<g>
		<g>
			<path class="st1" d="M13.9,23.5c-3.6,0-6.5,2.9-6.5,6.5c0,3.6,2.9,6.5,6.5,6.5c3.6,0,6.5-2.9,6.5-6.5S17.5,23.5,13.9,23.5z
				 M13.9,33.8c-2.1,0-3.9-1.7-3.9-3.9s1.7-3.9,3.9-3.9s3.9,1.7,3.9,3.9S16,33.8,13.9,33.8z"/>
			<path class="st2" d="M23.1,39c0-0.1-0.1-0.3-0.3-0.3h-2c-0.1,0-0.3,0.1-0.3,0.3v2.6H18c-0.1,0-0.3,0.1-0.3,0.3v2
				c0,0.1,0.1,0.3,0.3,0.3h2.6v2.6c0,0.1,0.1,0.3,0.3,0.3h2c0.1,0,0.3-0.1,0.3-0.3v-2.6h2.6c0.1,0,0.3-0.1,0.3-0.3v-2
				c0-0.1-0.1-0.3-0.3-0.3h-2.6V39z"/>
			<path class="st1" d="M54.3,21.5c0,0-0.9-4.5-7.3-3.2c0,0-3.7-2-13.5-2.3c0.5-2.4,3.5-1.9,5.2-3.1c1.4-1,2.1-2.8,2-4.5
				c-0.1-1.5-2.4-1.5-2.3,0c0.1,1.1-0.2,2.1-1.2,2.7c-0.9,0.7-2.3,0.4-3.3,1c-1.5,0.8-2.4,2.2-2.6,3.8c-11,0.2-15.1,2.4-15.1,2.4
				c-6.4-1.3-7.3,3.2-7.3,3.2c-6.4,4.2-4.5,12.1-4.5,12.1c-0.7,7.9-0.9,22.6,4.4,22.6S14,42.4,14,42.4s0.9,1.5,1.6,3.5
				c0.7,2,6,7.5,11.7,1.5c5.7-6-2.2-12.1-2.2-12.1v-1c1.9-0.5,6.4-0.6,6.4-0.6s4.5,0.1,6.4,0.6v1c0,0-7.9,6-2.2,12.1
				s11,0.5,11.7-1.5c0.7-2,1.6-3.5,1.6-3.5s0,13.7,5.3,13.7c5.3,0,5.1-14.6,4.4-22.6C58.9,33.6,60.7,25.7,54.3,21.5z M38.2,19.1
				c0.2,0,0.3,0,0.5,0c0.1,0,0.2,0.1,0.2,0.2c0,0.2,0,0.5,0,0.7c0,0.2-0.1,0.3-0.3,0.3c-0.1,0-0.3,0-0.4,0c-0.2,0-0.3-0.1-0.3-0.3
				c0-0.1,0-0.2,0-0.3c0-0.1,0-0.2,0-0.3C37.9,19.3,38.1,19.1,38.2,19.1z M36,19.1c0.2,0,0.4,0,0.7,0c0.1,0,0.1,0,0.2,0.1
				c0,0,0.1,0.1,0.1,0.2c0,0.2,0,0.5,0,0.7c0,0,0,0.1,0,0.1c-0.1,0.1-0.2,0.2-0.3,0.2c-0.2,0-0.4,0-0.6,0C36,19.9,36,19.5,36,19.1z
				 M34,19.1c0.1,0,0.2,0,0.3,0c0,0,0,0,0,0c0.1,0.2,0.2,0.4,0.3,0.6c0,0,0,0,0,0.1c0-0.2,0-0.5,0-0.7c0.1,0,0.1,0,0.2,0
				c0,0.4,0,0.8,0,1.2c-0.1,0-0.1,0-0.2,0c0,0,0,0,0,0c-0.1-0.3-0.3-0.5-0.4-0.8c0,0,0,0,0-0.1c0,0.3,0,0.6,0,0.8
				c-0.1,0-0.1,0-0.2,0C34,19.9,34,19.5,34,19.1z M32,19.4c0-0.2,0.1-0.2,0.2-0.2c0.2,0,0.4,0,0.6,0c0,0,0,0,0.1,0
				c0,0.1,0,0.1,0,0.2c0,0,0,0-0.1,0c-0.2,0-0.3,0-0.5,0c-0.1,0-0.2,0-0.2,0.2c0,0,0,0.1,0,0.1c0.2,0,0.5,0,0.7,0c0,0.1,0,0.1,0,0.2
				c-0.2,0-0.4,0-0.7,0c0,0.1,0,0.2,0,0.2c0,0,0.1,0.1,0.1,0.1c0.2,0,0.3,0,0.5,0c0,0,0,0,0.1,0c0,0.1,0,0.1,0,0.2c0,0,0,0,0,0
				c-0.2,0-0.4,0-0.6,0c-0.1,0-0.2-0.1-0.2-0.2C32,19.8,32,19.6,32,19.4z M30,19.1c0.3,0,0.7,0,1,0c0,0.1,0,0.1,0,0.2
				c-0.1,0-0.2,0-0.4,0c0,0.3,0,0.7,0,1c-0.1,0-0.2,0-0.2,0c0-0.3,0-0.7,0-1c-0.1,0-0.2,0-0.4,0C30,19.3,30,19.2,30,19.1z M30,20.7
				c0.5,0,1.1,0,1.6,0c0,0.1,0,0.2,0,0.3c-0.4,0-0.8,0-1.2,0c0,0.1,0,0.2,0,0.2c0.2,0,0.4,0,0.7,0c0,0.1,0,0.2,0,0.3
				c-0.2,0-0.4,0-0.7,0c0,0.1,0,0.2,0,0.3c0.4,0,0.8,0,1.2,0c0,0.1,0,0.2,0,0.4c-0.5,0-1.1,0-1.6,0C30,21.8,30,21.3,30,20.7z
				 M28.1,19.1c0.1,0,0.2,0,0.3,0c0,0,0,0,0,0c0.1,0.2,0.2,0.4,0.3,0.6c0,0,0,0,0,0c0-0.2,0-0.5,0-0.7c0.1,0,0.2,0,0.2,0
				c0,0.4,0,0.8,0,1.2c-0.1,0-0.2,0-0.2,0c0,0,0,0,0,0c-0.1-0.2-0.3-0.5-0.4-0.7c0,0,0,0,0,0c0,0.3,0,0.6,0,0.8c-0.1,0-0.1,0-0.2,0
				C28.1,19.9,28.1,19.5,28.1,19.1z M26.6,19.1c0.1,0,0.2,0,0.2,0c0,0.4,0,0.8,0,1.2c-0.1,0-0.2,0-0.2,0
				C26.6,19.9,26.6,19.5,26.6,19.1z M24.4,19.1c0.1,0,0.2,0,0.3,0c0,0,0,0,0,0c0.1,0.2,0.2,0.4,0.3,0.6c0,0,0,0,0,0
				c0-0.2,0-0.5,0-0.7c0.1,0,0.2,0,0.2,0c0,0.4,0,0.8,0,1.2c-0.1,0-0.1,0-0.2,0c0,0,0,0,0,0c-0.1-0.3-0.3-0.5-0.4-0.8c0,0,0,0,0,0
				c0,0.1,0,0.3,0,0.4c0,0.1,0,0.3,0,0.4c-0.1,0-0.1,0-0.2,0C24.4,19.9,24.4,19.5,24.4,19.1z M13.9,37.1c-3.9,0-7.1-3.2-7.1-7.1
				s3.2-7.1,7.1-7.1c3.9,0,7.1,3.2,7.1,7.1S17.8,37.1,13.9,37.1z M25.7,41c0.5,0,0.8,0.4,0.8,0.8v2c0,0.5-0.4,0.8-0.8,0.8h-2.1v2.1
				c0,0.5-0.4,0.8-0.8,0.8h-2c-0.5,0-0.8-0.4-0.8-0.8v-2H18c-0.5,0-0.8-0.4-0.8-0.8v-2c0-0.5,0.4-0.8,0.8-0.8H20V39
				c0-0.5,0.4-0.8,0.8-0.8h2c0.5,0,0.8,0.4,0.8,0.8V41L25.7,41L25.7,41z M25.5,22.3c-0.3,0-0.7,0-1,0c-0.2,0-0.3-0.1-0.4-0.3
				c0,0,0-0.1,0-0.1c0-0.3,0-0.6,0-0.9c0,0,0-0.1,0-0.1c0-0.1,0.1-0.2,0.2-0.2c0.5,0,1,0,1.5,0c0,0,0,0,0,0c0,0.1,0,0.2,0,0.3
				c-0.5,0-0.9,0-1.4,0c0,0.3,0,0.6,0,0.9c0.3,0,0.7,0,1,0c0-0.1,0-0.2,0-0.2c-0.2,0-0.4,0-0.6,0c0-0.1,0-0.2,0-0.4c0.3,0,0.6,0,1,0
				c0,0,0,0,0,0.1c0,0.2,0,0.4,0,0.6c0,0.1,0,0.1,0,0.2c0,0-0.1,0.1-0.1,0.1C25.6,22.3,25.6,22.3,25.5,22.3z M29.5,21.5
				C29.5,21.5,29.4,21.6,29.5,21.5c-0.2,0.3-0.3,0.5-0.4,0.7c0,0,0,0-0.1,0c-0.1,0-0.2,0-0.2,0c0,0-0.1,0-0.1,0
				c-0.1-0.2-0.3-0.5-0.4-0.7c0,0,0,0,0-0.1c0,0.3,0,0.5,0,0.8c0,0,0,0-0.1,0c-0.2,0-0.4,0-0.6,0c0,0-0.1,0-0.1,0
				c-0.2-0.3-0.4-0.7-0.6-1c0,0,0,0,0-0.1c-0.1,0.2-0.3,0.5-0.4,0.7c0.2,0,0.3,0,0.5,0c0,0.1,0,0.2,0,0.4c-0.4,0-0.8,0-1.1,0
				c0,0,0,0,0,0c0.3-0.5,0.6-1,0.9-1.5c0,0,0-0.1,0.1,0c0.1,0,0.2,0,0.3,0c0,0,0.1,0,0.1,0c0.2,0.4,0.4,0.7,0.6,1.1c0,0,0,0,0,0.1
				c0-0.4,0-0.8,0-1.2c0.1,0,0.2,0,0.2,0c0.1,0,0.2,0,0.3,0.1c0.2,0.3,0.3,0.6,0.5,0.9c0,0,0,0,0,0.1c0.1-0.2,0.2-0.3,0.3-0.4
				c0.1-0.2,0.2-0.4,0.3-0.6c0,0,0,0,0.1,0c0.1,0,0.2,0,0.4,0c0,0.5,0,1,0,1.6c-0.1,0-0.3,0-0.4,0C29.5,22.1,29.5,21.8,29.5,21.5
				C29.5,21.5,29.5,21.5,29.5,21.5z M31.6,31.6c-1,0-1.9-0.8-1.9-1.9c0-1,0.8-1.9,1.9-1.9c1,0,1.9,0.8,1.9,1.9
				C33.5,30.7,32.6,31.6,31.6,31.6z M32.4,21.1c0,0.3,0,0.6,0,0.8c0.3,0,0.6,0,0.9,0c0-0.1,0-0.2,0-0.3c0.1,0,0.3,0,0.4,0
				c0,0,0,0,0,0c0,0.1,0,0.3,0,0.4c0,0.1-0.1,0.2-0.2,0.2c-0.4,0-0.8,0-1.2,0c-0.2,0-0.3-0.1-0.3-0.3c0,0,0,0,0-0.1c0-0.3,0-0.7,0-1
				c0-0.1,0-0.2,0.2-0.2c0.4,0,0.8,0,1.3,0c0.2,0,0.3,0.1,0.2,0.3c0,0.1,0,0.2,0,0.3c0,0,0,0,0,0.1c-0.1,0-0.3,0-0.4,0
				c0-0.1,0-0.2,0-0.2C32.9,21.1,32.7,21.1,32.4,21.1z M35.6,20.8c0,0.4,0,0.8,0,1.2c0,0.2-0.1,0.3-0.3,0.3c0,0-0.1,0-0.1,0
				c-0.4,0-0.7,0-1.1,0c-0.1,0-0.1,0-0.2,0c-0.1,0-0.2-0.1-0.2-0.2c0-0.4,0-0.9,0-1.3c0.1,0,0.3,0,0.4,0c0,0.4,0,0.8,0,1.2
				c0.3,0,0.6,0,0.9,0c0-0.4,0-0.8,0-1.2C35.3,20.7,35.4,20.7,35.6,20.8C35.6,20.8,35.6,20.8,35.6,20.8z M37.3,21.5
				c0.1,0,0.1,0.1,0.1,0.2c0,0.1,0,0.3,0,0.4c0,0.1,0,0.2-0.1,0.2c-0.1,0-0.2,0-0.3,0c-0.4,0-0.8,0-1.2,0c0,0,0,0,0,0
				c0-0.5,0-1,0-1.6c0,0,0,0,0.1,0c0.5,0,0.9,0,1.4,0c0.2,0,0.2,0.1,0.2,0.2c0,0.1,0,0.2,0,0.4C37.4,21.4,37.4,21.5,37.3,21.5
				C37.3,21.5,37.3,21.5,37.3,21.5C37.3,21.5,37.3,21.5,37.3,21.5C37.3,21.5,37.3,21.5,37.3,21.5z M37.6,22.3c0-0.5,0-1,0-1.6
				c0.5,0,1,0,1.6,0c0,0.1,0,0.2,0,0.3c-0.4,0-0.8,0-1.2,0c0,0.1,0,0.2,0,0.2c0.2,0,0.4,0,0.7,0c0,0.1,0,0.2,0,0.3
				c-0.2,0-0.4,0-0.7,0c0,0.1,0,0.2,0,0.3c0.4,0,0.8,0,1.2,0c0,0.1,0,0.2,0,0.4C38.7,22.3,38.1,22.3,37.6,22.3z M46,43.5l-1.8,3.1
				c0,0.1-0.1,0.1-0.2,0.1l-3.4,0.9c0,0,0,0-0.1,0c-0.1,0-0.1,0-0.1,0l-3-1.8c-0.1,0-0.1-0.1-0.1-0.2l-0.8-3.5c0-0.1,0-0.2,0-0.2
				l1.8-2.8c0-0.1,0.1-0.1,0.2-0.1l3.3-0.8c0.1,0,0.1,0,0.2,0l2.9,1.7c0.1,0,0.1,0.1,0.1,0.2l1,3.2C46.1,43.3,46,43.4,46,43.5z
				 M56.4,32.7c-0.2,0-0.4,0.1-0.5,0.1c-0.3,0-0.5-0.1-0.7-0.1c-0.9,2.4-3.3,4.1-6,4.1c-1.7,0-3.2-0.6-4.3-1.7
				c-0.5,0.7-1.3,1.2-2.2,1.2c-1.5,0-2.7-1.2-2.7-2.7c0-1.5,1.2-2.7,2.7-2.7c0,0,0.1,0,0.1,0c0-0.2,0-0.4,0-0.5c0-1.6,0.5-3,1.5-4.1
				c-0.2-0.2-0.4-0.5-0.5-0.9c-0.3-1.1,0.4-2.2,1.4-2.5l0.1,0c1.8-0.5,1.8-0.5,3.4-0.9l0.1,0c0.2,0,0.3-0.1,0.5-0.1
				c0.9,0,1.8,0.6,2,1.5c0.1,0.3,0.1,0.6,0,0.8c0.9,0.3,1.8,0.8,2.5,1.5c0.2-0.2,0.5-0.3,0.8-0.4c0.2,0,0.4-0.1,0.5-0.1
				c0.9,0,1.7,0.6,2,1.5l0,0.1c0.5,1.8,0.5,1.8,0.9,3.4l0,0.1C58.1,31.4,57.5,32.5,56.4,32.7z"/>
			<circle class="st1" cx="31.6" cy="29.7" r="1.3"/>
			<path class="st2" d="M36.7,20c0-0.2,0-0.4,0-0.5c0-0.1-0.1-0.1-0.1-0.1c-0.1,0-0.2,0-0.4,0c0,0.3,0,0.6,0,0.8c0.1,0,0.2,0,0.3,0
				C36.6,20.2,36.7,20.1,36.7,20z"/>
			<path class="st2" d="M37,21.3C37,21.3,37,21.3,37,21.3c0.1-0.1,0.1-0.2,0.1-0.2c0,0,0-0.1-0.1-0.1c-0.2,0-0.5,0-0.7,0
				c0,0,0,0,0,0c0,0.1,0,0.2,0,0.3c0.1,0,0.2,0,0.2,0C36.6,21.3,36.8,21.3,37,21.3z"/>
			<path class="st1" d="M53.9,31.3C53.9,31.3,53.9,31.2,53.9,31.3c0-0.1,0-1.2-0.2-1.9c-0.1-0.4-0.4-0.9-0.6-1.2
				C53,28,53,27.9,52.9,27.7c-0.2-0.6,0-1.2,0.3-1.7c-0.6-0.6-1.4-1.1-2.3-1.4c0,0.1,0,0.1-0.1,0.2c-0.3,0.5-0.7,0.8-1.2,1
				c0,0-0.1,0-0.1,0l-0.1,0c-0.2,0-1.1,0-1.7,0.2c-0.4,0.1-0.9,0.4-1.2,0.6c-0.2,0.1-0.4,0.2-0.5,0.2c-0.2,0-0.4,0.1-0.5,0.1
				c-0.4,0-0.7-0.1-1-0.3c-0.8,1-1.3,2.3-1.3,3.7c0,0.2,0,0.4,0,0.6c1.2,0.3,2.1,1.4,2.1,2.6c0,0.4-0.1,0.7-0.2,1.1
				c1.1,1,2.5,1.6,4,1.6c2.5,0,4.7-1.6,5.5-3.8C54.3,32.1,54,31.7,53.9,31.3z M49.2,34.2c-2.1,0-3.8-1.7-3.8-3.8s1.7-3.8,3.8-3.8
				c2.1,0,3.8,1.7,3.8,3.8S51.3,34.2,49.2,34.2z"/>
			<path class="st2" d="M38.2,20c0,0.1,0,0.1,0.1,0.1c0.1,0,0.2,0,0.3,0c0.1,0,0.1-0.1,0.1-0.1c0-0.2,0-0.3,0-0.5
				c0-0.1-0.1-0.1-0.1-0.1c-0.1,0-0.1,0-0.2,0c-0.1,0-0.1,0.1-0.1,0.1c0,0.1,0,0.2,0,0.3h0C38.2,19.8,38.2,19.9,38.2,20z"/>
			<path class="st3" d="M49.2,27.3c-1.8,0-3.2,1.4-3.2,3.2c0,1.8,1.4,3.2,3.2,3.2c1.8,0,3.2-1.4,3.2-3.2
				C52.4,28.7,50.9,27.3,49.2,27.3z"/>
			<path class="st4" d="M41.8,38.7l-3.1,0.8L37,42.1l0.8,3.3l2.8,1.7l3.2-0.8l1.6-2.9l-0.9-3L41.8,38.7z M41.2,45.8
				c-1.6,0-2.9-1.3-2.9-2.9c0-1.6,1.3-2.9,2.9-2.9c1.6,0,2.9,1.3,2.9,2.9S42.8,45.8,41.2,45.8z"/>
			<path class="st2" d="M37,21.7c-0.2,0-0.5,0-0.7,0c0,0,0,0,0,0c0,0.1,0,0.2,0,0.3c0,0,0,0,0.1,0c0.2,0,0.4,0,0.6,0
				c0.1,0,0.1,0,0.2,0c0,0,0.1,0,0.1-0.1C37,21.8,37,21.8,37,21.7C37,21.7,37,21.7,37,21.7z"/>
			<path class="st4" d="M41.2,40.6c-1.3,0-2.3,1-2.3,2.3c0,1.3,1,2.3,2.3,2.3c1.3,0,2.3-1,2.3-2.3C43.6,41.6,42.5,40.6,41.2,40.6z"
				/>
			<path class="st5" d="M43.3,31.5c-0.2-0.1-0.4-0.1-0.6-0.1c-0.1,0-0.1,0-0.2,0c-1.2,0-2.2,1-2.2,2.2s1,2.2,2.2,2.2
				c0.8,0,1.4-0.4,1.8-1c0.1-0.2,0.2-0.4,0.3-0.6c0.1-0.2,0.1-0.4,0.1-0.6C44.7,32.6,44.1,31.9,43.3,31.5z"/>
			<path class="st1" d="M44.5,25.8c0.1,0.1,0.3,0.3,0.5,0.3c0.3,0.1,0.6,0.2,1,0.1c0,0,0.2-0.1,0.3-0.2c0.4-0.2,0.8-0.5,1.4-0.6
				c0.6-0.2,1.5-0.2,1.8-0.2l0.1,0c0.4-0.1,0.7-0.3,0.9-0.7c0,0,0,0,0,0c0.1-0.2,0.2-0.4,0.2-0.6c0-0.2,0-0.4,0-0.5
				c-0.2-0.6-0.7-1.1-1.4-1.1c-0.1,0-0.2,0-0.4,0l-0.1,0c-1.6,0.4-1.6,0.4-3.3,0.9l-0.1,0c-0.8,0.2-1.3,1-1,1.8
				C44.2,25.4,44.3,25.6,44.5,25.8z"/>
			<path class="st1" d="M57.3,30.3c-0.4-1.6-0.4-1.6-0.9-3.4l0-0.1c-0.2-0.8-1-1.2-1.8-1c-0.2,0.1-0.4,0.1-0.5,0.3
				c-0.2,0.1-0.3,0.3-0.4,0.4c-0.2,0.3-0.2,0.7-0.1,1.1c0,0,0.1,0.2,0.2,0.3c0.2,0.4,0.5,0.8,0.6,1.4c0.2,0.7,0.2,1.7,0.2,1.9
				c0.1,0.2,0.2,0.4,0.3,0.6c0.1,0.1,0.3,0.3,0.5,0.3c0.3,0.1,0.6,0.2,0.9,0.1C57,32,57.5,31.2,57.3,30.3L57.3,30.3z"/>
		</g>
		<circle class="st6" cx="13.9" cy="30" r="2.5"/>
	</g>
</g>
<rect x="23.1" y="17.8" class="st1" width="16.5" height="5.9"/>
</svg>
